<mxfile host="app.diagrams.net" modified="2024-07-20T03:18:43.938Z" agent="Mozilla/5.0 (Windows NT 10.0; Win64; x64; rv:126.0) Gecko/20100101 Firefox/126.0" etag="_-whcMfTQJYVYbMSWtHV" version="24.7.2" type="github">
  <diagram id="C5RBs43oDa-KdzZeNtuy" name="Page-1">
    <mxGraphModel dx="3706" dy="1762" grid="1" gridSize="10" guides="1" tooltips="1" connect="1" arrows="1" fold="1" page="1" pageScale="1" pageWidth="827" pageHeight="1169" math="0" shadow="0">
      <root>
        <mxCell id="WIyWlLk6GJQsqaUBKTNV-0" />
        <mxCell id="WIyWlLk6GJQsqaUBKTNV-1" parent="WIyWlLk6GJQsqaUBKTNV-0" />
        <mxCell id="cX74r-irstFo8AocH613-2" value="" style="group" parent="WIyWlLk6GJQsqaUBKTNV-1" vertex="1" connectable="0">
          <mxGeometry x="-903" y="60" width="1730" height="940" as="geometry" />
        </mxCell>
        <mxCell id="fn--iJWpwkI6Ji2KhRYZ-56" value="&lt;b&gt;&lt;u&gt;&lt;font style=&quot;font-size: 23px;&quot;&gt;Rough Draft UML Diagram&lt;/font&gt;&lt;/u&gt;&lt;/b&gt;" style="text;html=1;align=center;verticalAlign=middle;whiteSpace=wrap;rounded=0;strokeWidth=2;" parent="cX74r-irstFo8AocH613-2" vertex="1">
          <mxGeometry y="43.72881355932203" width="736.6666666666667" height="65.59322033898304" as="geometry" />
        </mxCell>
        <mxCell id="sLAZ6YUZ_4-rQjLrF8DP-27" value="" style="group" vertex="1" connectable="0" parent="cX74r-irstFo8AocH613-2">
          <mxGeometry x="217.22" width="1512.78" height="940" as="geometry" />
        </mxCell>
        <mxCell id="fn--iJWpwkI6Ji2KhRYZ-12" value="" style="ellipse;whiteSpace=wrap;html=1;fillColor=#000000;strokeWidth=2;" parent="sLAZ6YUZ_4-rQjLrF8DP-27" vertex="1">
          <mxGeometry x="76.18316546762587" y="207.1186440677966" width="21.76661870503597" height="15.932203389830507" as="geometry" />
        </mxCell>
        <mxCell id="fn--iJWpwkI6Ji2KhRYZ-13" value="" style="endArrow=classic;html=1;rounded=0;strokeWidth=2;" parent="sLAZ6YUZ_4-rQjLrF8DP-27" edge="1">
          <mxGeometry width="50" height="50" relative="1" as="geometry">
            <mxPoint x="97.94978417266186" y="207.1186440677966" as="sourcePoint" />
            <mxPoint x="206.78287769784174" y="207.1186440677966" as="targetPoint" />
          </mxGeometry>
        </mxCell>
        <mxCell id="fn--iJWpwkI6Ji2KhRYZ-15" value="" style="endArrow=classic;html=1;rounded=0;strokeWidth=2;" parent="sLAZ6YUZ_4-rQjLrF8DP-27" edge="1">
          <mxGeometry width="50" height="50" relative="1" as="geometry">
            <mxPoint x="337.3825899280576" y="207.1186440677966" as="sourcePoint" />
            <mxPoint x="467.9823021582733" y="207.1186440677966" as="targetPoint" />
          </mxGeometry>
        </mxCell>
        <mxCell id="fn--iJWpwkI6Ji2KhRYZ-24" value="" style="endArrow=classic;html=1;rounded=0;strokeWidth=2;" parent="sLAZ6YUZ_4-rQjLrF8DP-27" edge="1">
          <mxGeometry width="50" height="50" relative="1" as="geometry">
            <mxPoint x="642.1152517985611" y="202.33898305084745" as="sourcePoint" />
            <mxPoint x="772.7149640287768" y="202.33898305084745" as="targetPoint" />
          </mxGeometry>
        </mxCell>
        <mxCell id="fn--iJWpwkI6Ji2KhRYZ-26" value="" style="endArrow=classic;html=1;rounded=0;strokeWidth=2;" parent="sLAZ6YUZ_4-rQjLrF8DP-27" edge="1">
          <mxGeometry width="50" height="50" relative="1" as="geometry">
            <mxPoint x="925.0812949640288" y="200.7457627118644" as="sourcePoint" />
            <mxPoint x="1033.9143884892085" y="200.34745762711862" as="targetPoint" />
          </mxGeometry>
        </mxCell>
        <mxCell id="fn--iJWpwkI6Ji2KhRYZ-30" value="" style="endArrow=classic;html=1;rounded=0;strokeWidth=2;" parent="sLAZ6YUZ_4-rQjLrF8DP-27" edge="1">
          <mxGeometry width="50" height="50" relative="1" as="geometry">
            <mxPoint x="1119.8925323741005" y="71.69491525423729" as="sourcePoint" />
            <mxPoint x="1119.8925323741005" y="163.3050847457627" as="targetPoint" />
          </mxGeometry>
        </mxCell>
        <mxCell id="fn--iJWpwkI6Ji2KhRYZ-35" value="" style="endArrow=classic;html=1;rounded=0;strokeWidth=2;" parent="sLAZ6YUZ_4-rQjLrF8DP-27" edge="1">
          <mxGeometry width="50" height="50" relative="1" as="geometry">
            <mxPoint x="1120.9808633093526" y="242.96610169491524" as="sourcePoint" />
            <mxPoint x="1120.9808633093526" y="318.64406779661016" as="targetPoint" />
          </mxGeometry>
        </mxCell>
        <mxCell id="fn--iJWpwkI6Ji2KhRYZ-42" value="" style="endArrow=classic;html=1;rounded=0;strokeWidth=2;" parent="sLAZ6YUZ_4-rQjLrF8DP-27" edge="1">
          <mxGeometry width="50" height="50" relative="1" as="geometry">
            <mxPoint x="1197.1640287769785" y="462.03389830508473" as="sourcePoint" />
            <mxPoint x="1295.11381294964" y="509.8305084745762" as="targetPoint" />
          </mxGeometry>
        </mxCell>
        <mxCell id="fn--iJWpwkI6Ji2KhRYZ-43" value="" style="endArrow=none;html=1;rounded=0;strokeWidth=6;" parent="sLAZ6YUZ_4-rQjLrF8DP-27" edge="1">
          <mxGeometry width="50" height="50" relative="1" as="geometry">
            <mxPoint x="1044.7976978417266" y="462.03389830508473" as="sourcePoint" />
            <mxPoint x="1197.1640287769785" y="462.03389830508473" as="targetPoint" />
          </mxGeometry>
        </mxCell>
        <mxCell id="fn--iJWpwkI6Ji2KhRYZ-44" value="" style="endArrow=classic;html=1;rounded=0;strokeWidth=2;" parent="sLAZ6YUZ_4-rQjLrF8DP-27" edge="1">
          <mxGeometry width="50" height="50" relative="1" as="geometry">
            <mxPoint x="1119.8925323741005" y="414.2372881355932" as="sourcePoint" />
            <mxPoint x="1120.9808633093526" y="462.03389830508473" as="targetPoint" />
          </mxGeometry>
        </mxCell>
        <mxCell id="fn--iJWpwkI6Ji2KhRYZ-45" value="&lt;font style=&quot;font-size: 24px;&quot;&gt;Log Predictions&lt;/font&gt;" style="rounded=1;whiteSpace=wrap;html=1;strokeWidth=2;fillColor=#fff2cc;strokeColor=#d6b656;" parent="sLAZ6YUZ_4-rQjLrF8DP-27" vertex="1">
          <mxGeometry x="1295.11381294964" y="509.8305084745762" width="217.66618705035972" height="63.72881355932203" as="geometry" />
        </mxCell>
        <mxCell id="fn--iJWpwkI6Ji2KhRYZ-47" value="" style="endArrow=classic;html=1;rounded=0;strokeWidth=2;" parent="sLAZ6YUZ_4-rQjLrF8DP-27" edge="1">
          <mxGeometry width="50" height="50" relative="1" as="geometry">
            <mxPoint x="1051.8398391874737" y="459.06976744186045" as="sourcePoint" />
            <mxPoint x="925.0812949640288" y="509.8305084745762" as="targetPoint" />
          </mxGeometry>
        </mxCell>
        <mxCell id="fn--iJWpwkI6Ji2KhRYZ-51" value="" style="endArrow=classic;html=1;rounded=0;strokeWidth=2;" parent="sLAZ6YUZ_4-rQjLrF8DP-27" edge="1">
          <mxGeometry width="50" height="50" relative="1" as="geometry">
            <mxPoint x="707.4151079136691" y="541.6949152542372" as="sourcePoint" />
            <mxPoint x="598.5820143884894" y="541.6949152542372" as="targetPoint" />
          </mxGeometry>
        </mxCell>
        <mxCell id="fn--iJWpwkI6Ji2KhRYZ-54" value="" style="endArrow=classic;html=1;rounded=0;entryX=0.5;entryY=1;entryDx=0;entryDy=0;strokeWidth=2;" parent="sLAZ6YUZ_4-rQjLrF8DP-27" target="fn--iJWpwkI6Ji2KhRYZ-14" edge="1">
          <mxGeometry width="50" height="50" relative="1" as="geometry">
            <mxPoint x="446.2156834532374" y="493.89830508474574" as="sourcePoint" />
            <mxPoint x="555.0487769784172" y="414.2372881355932" as="targetPoint" />
          </mxGeometry>
        </mxCell>
        <mxCell id="cX74r-irstFo8AocH613-0" value="" style="group" parent="sLAZ6YUZ_4-rQjLrF8DP-27" vertex="1" connectable="0">
          <mxGeometry width="1208.0473381294962" height="940" as="geometry" />
        </mxCell>
        <mxCell id="fn--iJWpwkI6Ji2KhRYZ-14" value="&lt;font style=&quot;font-size: 24px;&quot;&gt;GUI&lt;/font&gt;" style="rounded=0;whiteSpace=wrap;html=1;strokeWidth=2;fillColor=#f8cecc;strokeColor=#b85450;" parent="cX74r-irstFo8AocH613-0" vertex="1">
          <mxGeometry x="206.78287769784174" y="167.28813559322035" width="130.5997122302158" height="87.62711864406779" as="geometry" />
        </mxCell>
        <mxCell id="fn--iJWpwkI6Ji2KhRYZ-21" value="&lt;div style=&quot;font-size: 24px;&quot;&gt;&lt;font style=&quot;font-size: 24px;&quot;&gt;Obtain&lt;/font&gt;&lt;/div&gt;&lt;div style=&quot;font-size: 24px;&quot;&gt;&lt;font style=&quot;font-size: 24px;&quot;&gt;User Stock Data&lt;/font&gt;&lt;/div&gt;" style="rounded=1;whiteSpace=wrap;html=1;strokeWidth=2;fillColor=#fff2cc;strokeColor=#d6b656;" parent="cX74r-irstFo8AocH613-0" vertex="1">
          <mxGeometry x="467.98230215827334" y="163.3050847457627" width="174.13294964028776" height="75.67796610169489" as="geometry" />
        </mxCell>
        <mxCell id="fn--iJWpwkI6Ji2KhRYZ-22" value="&lt;div style=&quot;font-size: 24px;&quot;&gt;&lt;font style=&quot;font-size: 24px;&quot;&gt;User Stock data (or default data)&lt;br&gt;&lt;/font&gt;&lt;/div&gt;" style="rounded=0;whiteSpace=wrap;html=1;strokeWidth=2;fillColor=#f8cecc;strokeColor=#b85450;" parent="cX74r-irstFo8AocH613-0" vertex="1">
          <mxGeometry x="772.7149640287769" y="167.28813559322035" width="152.3663309352518" height="103.5593220338983" as="geometry" />
        </mxCell>
        <mxCell id="fn--iJWpwkI6Ji2KhRYZ-28" value="&lt;font style=&quot;font-size: 24px;&quot;&gt;ML Algorithm&lt;/font&gt;" style="rounded=1;whiteSpace=wrap;html=1;strokeWidth=2;fillColor=#fff2cc;strokeColor=#d6b656;" parent="cX74r-irstFo8AocH613-0" vertex="1">
          <mxGeometry x="1033.9143884892085" y="167.28813559322035" width="174.13294964028776" height="75.67796610169489" as="geometry" />
        </mxCell>
        <mxCell id="fn--iJWpwkI6Ji2KhRYZ-31" value="&lt;font style=&quot;font-size: 24px;&quot;&gt;Training Data&lt;/font&gt;" style="rounded=0;whiteSpace=wrap;html=1;strokeWidth=2;fillColor=#f8cecc;strokeColor=#b85450;" parent="cX74r-irstFo8AocH613-0" vertex="1">
          <mxGeometry x="1055.6810071942446" width="130.5997122302158" height="71.69491525423729" as="geometry" />
        </mxCell>
        <mxCell id="fn--iJWpwkI6Ji2KhRYZ-37" value="&lt;div style=&quot;font-size: 24px;&quot;&gt;&lt;font style=&quot;font-size: 24px;&quot;&gt;Raw Predictions&lt;/font&gt;&lt;/div&gt;" style="rounded=0;whiteSpace=wrap;html=1;strokeWidth=2;fillColor=#f8cecc;strokeColor=#b85450;" parent="cX74r-irstFo8AocH613-0" vertex="1">
          <mxGeometry x="1044.7976978417264" y="318.64406779661016" width="152.3663309352518" height="95.59322033898303" as="geometry" />
        </mxCell>
        <mxCell id="fn--iJWpwkI6Ji2KhRYZ-50" value="&lt;font style=&quot;font-size: 24px;&quot;&gt;Read / Prepare data&lt;/font&gt;" style="rounded=1;whiteSpace=wrap;html=1;strokeWidth=2;fillColor=#fff2cc;strokeColor=#d6b656;" parent="cX74r-irstFo8AocH613-0" vertex="1">
          <mxGeometry x="707.415107913669" y="509.8305084745762" width="217.66618705035972" height="63.72881355932203" as="geometry" />
        </mxCell>
        <mxCell id="fn--iJWpwkI6Ji2KhRYZ-53" value="&lt;div style=&quot;font-size: 24px;&quot;&gt;&lt;font style=&quot;font-size: 24px;&quot;&gt;Prediction&lt;/font&gt;&lt;/div&gt;&lt;div style=&quot;font-size: 24px;&quot;&gt;&lt;font style=&quot;font-size: 24px;&quot;&gt;Data&lt;br&gt;&lt;/font&gt;&lt;/div&gt;" style="rounded=0;whiteSpace=wrap;html=1;strokeWidth=2;fillColor=#f8cecc;strokeColor=#b85450;" parent="cX74r-irstFo8AocH613-0" vertex="1">
          <mxGeometry x="446.2156834532374" y="493.89830508474574" width="152.3663309352518" height="103.5593220338983" as="geometry" />
        </mxCell>
        <mxCell id="fn--iJWpwkI6Ji2KhRYZ-55" value="&lt;div&gt;Note: GUI will give this data through the GUI&lt;/div&gt;" style="text;html=1;align=center;verticalAlign=middle;whiteSpace=wrap;rounded=0;strokeWidth=2;" parent="cX74r-irstFo8AocH613-0" vertex="1">
          <mxGeometry x="10.883309352517985" y="366.44067796610165" width="348.2658992805755" height="63.72881355932203" as="geometry" />
        </mxCell>
        <mxCell id="fn--iJWpwkI6Ji2KhRYZ-57" value="" style="rounded=0;whiteSpace=wrap;html=1;strokeWidth=2;fillColor=#f8cecc;strokeColor=#b85450;" parent="cX74r-irstFo8AocH613-0" vertex="1">
          <mxGeometry y="812.5423728813558" width="76.1831654676259" height="47.796610169491515" as="geometry" />
        </mxCell>
        <mxCell id="fn--iJWpwkI6Ji2KhRYZ-60" value="&lt;div style=&quot;font-size: 24px;&quot; align=&quot;left&quot;&gt;&lt;font style=&quot;font-size: 24px;&quot;&gt;&lt;b&gt;- Objects / Data&lt;br&gt;&lt;/b&gt;&lt;/font&gt;&lt;/div&gt;" style="text;html=1;align=left;verticalAlign=middle;whiteSpace=wrap;rounded=0;strokeWidth=2;" parent="cX74r-irstFo8AocH613-0" vertex="1">
          <mxGeometry x="87.06647482014388" y="812.5423728813558" width="250.31611510791367" height="47.796610169491515" as="geometry" />
        </mxCell>
        <mxCell id="fn--iJWpwkI6Ji2KhRYZ-61" value="" style="rounded=1;whiteSpace=wrap;html=1;strokeWidth=2;fillColor=#fff2cc;strokeColor=#d6b656;" parent="cX74r-irstFo8AocH613-0" vertex="1">
          <mxGeometry y="892.2033898305084" width="76.1831654676259" height="47.796610169491515" as="geometry" />
        </mxCell>
        <mxCell id="fn--iJWpwkI6Ji2KhRYZ-64" value="&lt;div style=&quot;font-size: 24px;&quot; align=&quot;left&quot;&gt;&lt;font style=&quot;font-size: 24px;&quot;&gt;&lt;b&gt;- Methods&lt;br&gt;&lt;/b&gt;&lt;/font&gt;&lt;/div&gt;" style="text;html=1;align=left;verticalAlign=middle;whiteSpace=wrap;rounded=0;strokeWidth=2;" parent="cX74r-irstFo8AocH613-0" vertex="1">
          <mxGeometry x="97.94978417266186" y="892.2033898305084" width="250.31611510791367" height="47.796610169491515" as="geometry" />
        </mxCell>
        <mxCell id="sLAZ6YUZ_4-rQjLrF8DP-25" value="" style="group" vertex="1" connectable="0" parent="WIyWlLk6GJQsqaUBKTNV-1">
          <mxGeometry x="-760" y="1090" width="1560" height="730" as="geometry" />
        </mxCell>
        <mxCell id="sLAZ6YUZ_4-rQjLrF8DP-0" value="User" style="shape=umlActor;verticalLabelPosition=bottom;verticalAlign=top;html=1;outlineConnect=0;" vertex="1" parent="sLAZ6YUZ_4-rQjLrF8DP-25">
          <mxGeometry y="156.42857142857144" width="62.432432432432435" height="104.28571428571429" as="geometry" />
        </mxCell>
        <mxCell id="sLAZ6YUZ_4-rQjLrF8DP-1" value="&lt;font style=&quot;font-size: 22px;&quot;&gt;Create&amp;nbsp;&lt;/font&gt;&lt;div style=&quot;font-size: 22px;&quot;&gt;&lt;font style=&quot;font-size: 22px;&quot;&gt;Account&lt;/font&gt;&lt;/div&gt;" style="ellipse;whiteSpace=wrap;html=1;" vertex="1" parent="sLAZ6YUZ_4-rQjLrF8DP-25">
          <mxGeometry x="187.2972972972973" y="17.38095238095238" width="208.10810810810813" height="104.28571428571429" as="geometry" />
        </mxCell>
        <mxCell id="sLAZ6YUZ_4-rQjLrF8DP-2" value="&lt;font style=&quot;font-size: 24px;&quot;&gt;Login&lt;/font&gt;" style="ellipse;whiteSpace=wrap;html=1;" vertex="1" parent="sLAZ6YUZ_4-rQjLrF8DP-25">
          <mxGeometry x="541.0810810810812" width="187.2972972972973" height="86.90476190476191" as="geometry" />
        </mxCell>
        <mxCell id="sLAZ6YUZ_4-rQjLrF8DP-3" value="&lt;div style=&quot;font-size: 13px;&quot;&gt;&lt;font style=&quot;font-size: 24px;&quot;&gt;Acquire Stock Data&lt;/font&gt;&lt;/div&gt;" style="ellipse;whiteSpace=wrap;html=1;" vertex="1" parent="sLAZ6YUZ_4-rQjLrF8DP-25">
          <mxGeometry x="208.11" y="295.48" width="231.89" height="114.52" as="geometry" />
        </mxCell>
        <mxCell id="sLAZ6YUZ_4-rQjLrF8DP-4" value="" style="endArrow=none;html=1;rounded=0;fontSize=12;startSize=8;endSize=8;curved=1;entryX=0;entryY=0;entryDx=0;entryDy=0;" edge="1" parent="sLAZ6YUZ_4-rQjLrF8DP-25" target="sLAZ6YUZ_4-rQjLrF8DP-3">
          <mxGeometry width="50" height="50" relative="1" as="geometry">
            <mxPoint x="80.12162162162163" y="250.28571428571428" as="sourcePoint" />
            <mxPoint x="209.14864864864865" y="293.73809523809524" as="targetPoint" />
          </mxGeometry>
        </mxCell>
        <mxCell id="sLAZ6YUZ_4-rQjLrF8DP-5" value="&lt;font style=&quot;font-size: 24px;&quot;&gt;Connect to Stock API&lt;/font&gt;" style="ellipse;whiteSpace=wrap;html=1;" vertex="1" parent="sLAZ6YUZ_4-rQjLrF8DP-25">
          <mxGeometry x="853.24" width="226.76" height="110" as="geometry" />
        </mxCell>
        <mxCell id="sLAZ6YUZ_4-rQjLrF8DP-6" value="&lt;div style=&quot;font-size: 24px;&quot;&gt;&lt;font style=&quot;font-size: 24px;&quot;&gt;Sign in to&lt;/font&gt;&lt;/div&gt;&lt;div style=&quot;font-size: 24px;&quot;&gt;&lt;font style=&quot;font-size: 24px;&quot;&gt;&lt;font style=&quot;font-size: 24px;&quot;&gt;Previous account&lt;/font&gt;&lt;font style=&quot;font-size: 24px;&quot;&gt;&lt;br&gt;&lt;/font&gt;&lt;/font&gt;&lt;/div&gt;" style="ellipse;whiteSpace=wrap;html=1;" vertex="1" parent="sLAZ6YUZ_4-rQjLrF8DP-25">
          <mxGeometry x="187.2972972972973" y="121.66666666666667" width="228.91891891891893" height="121.66666666666667" as="geometry" />
        </mxCell>
        <mxCell id="sLAZ6YUZ_4-rQjLrF8DP-7" value="&lt;div style=&quot;font-size: 24px;&quot;&gt;Save Data in File&lt;/div&gt;" style="ellipse;whiteSpace=wrap;html=1;" vertex="1" parent="sLAZ6YUZ_4-rQjLrF8DP-25">
          <mxGeometry x="1352.7" y="278.1" width="207.3" height="111.9" as="geometry" />
        </mxCell>
        <mxCell id="sLAZ6YUZ_4-rQjLrF8DP-8" value="" style="endArrow=classic;html=1;rounded=0;" edge="1" parent="sLAZ6YUZ_4-rQjLrF8DP-25">
          <mxGeometry width="50" height="50" relative="1" as="geometry">
            <mxPoint x="895.9054054054054" y="298.95238095238096" as="sourcePoint" />
            <mxPoint x="1001" y="399.76190476190476" as="targetPoint" />
          </mxGeometry>
        </mxCell>
        <mxCell id="sLAZ6YUZ_4-rQjLrF8DP-9" value="&lt;font style=&quot;font-size: 24px;&quot;&gt;Make Prediction&lt;/font&gt;" style="ellipse;whiteSpace=wrap;html=1;" vertex="1" parent="sLAZ6YUZ_4-rQjLrF8DP-25">
          <mxGeometry x="978.1081081081081" y="382.3809523809524" width="187.2972972972973" height="104.28571428571429" as="geometry" />
        </mxCell>
        <mxCell id="sLAZ6YUZ_4-rQjLrF8DP-10" value="&lt;div style=&quot;font-size: 13px;&quot;&gt;&lt;font style=&quot;font-size: 24px;&quot;&gt;Process Stock Data&lt;/font&gt;&lt;/div&gt;" style="ellipse;whiteSpace=wrap;html=1;" vertex="1" parent="sLAZ6YUZ_4-rQjLrF8DP-25">
          <mxGeometry x="832.4324324324325" y="208.57142857142858" width="187.2972972972973" height="104.28571428571429" as="geometry" />
        </mxCell>
        <mxCell id="sLAZ6YUZ_4-rQjLrF8DP-11" value="" style="endArrow=none;html=1;rounded=0;" edge="1" parent="sLAZ6YUZ_4-rQjLrF8DP-25" source="sLAZ6YUZ_4-rQjLrF8DP-0" target="sLAZ6YUZ_4-rQjLrF8DP-12">
          <mxGeometry width="50" height="50" relative="1" as="geometry">
            <mxPoint x="124.86486486486487" y="469.2857142857143" as="sourcePoint" />
            <mxPoint x="41.62162162162162" y="293.73809523809524" as="targetPoint" />
          </mxGeometry>
        </mxCell>
        <mxCell id="sLAZ6YUZ_4-rQjLrF8DP-12" value="&lt;font style=&quot;font-size: 24px;&quot;&gt;User Submits Personal (local) CSV&amp;nbsp; file&lt;/font&gt;" style="ellipse;whiteSpace=wrap;html=1;" vertex="1" parent="sLAZ6YUZ_4-rQjLrF8DP-25">
          <mxGeometry x="62.432432432432435" y="538.8095238095239" width="208.10810810810813" height="139.04761904761904" as="geometry" />
        </mxCell>
        <mxCell id="sLAZ6YUZ_4-rQjLrF8DP-13" value="" style="endArrow=none;html=1;rounded=0;entryX=0.391;entryY=1.059;entryDx=0;entryDy=0;entryPerimeter=0;" edge="1" parent="sLAZ6YUZ_4-rQjLrF8DP-25" target="sLAZ6YUZ_4-rQjLrF8DP-3">
          <mxGeometry width="50" height="50" relative="1" as="geometry">
            <mxPoint x="208.10810810810813" y="538.8095238095239" as="sourcePoint" />
            <mxPoint x="312.1621621621622" y="451.9047619047619" as="targetPoint" />
          </mxGeometry>
        </mxCell>
        <mxCell id="sLAZ6YUZ_4-rQjLrF8DP-14" value="" style="endArrow=classic;html=1;rounded=0;" edge="1" parent="sLAZ6YUZ_4-rQjLrF8DP-25" target="sLAZ6YUZ_4-rQjLrF8DP-2">
          <mxGeometry width="50" height="50" relative="1" as="geometry">
            <mxPoint x="374.5945945945946" y="154.6904761904762" as="sourcePoint" />
            <mxPoint x="478.64864864864865" y="67.78571428571429" as="targetPoint" />
          </mxGeometry>
        </mxCell>
        <mxCell id="sLAZ6YUZ_4-rQjLrF8DP-15" value="" style="endArrow=classic;html=1;rounded=0;entryX=0;entryY=0.5;entryDx=0;entryDy=0;" edge="1" parent="sLAZ6YUZ_4-rQjLrF8DP-25" target="sLAZ6YUZ_4-rQjLrF8DP-2">
          <mxGeometry width="50" height="50" relative="1" as="geometry">
            <mxPoint x="391.2432432432432" y="69.52380952380952" as="sourcePoint" />
            <mxPoint x="495.2972972972973" y="-17.38095238095238" as="targetPoint" />
          </mxGeometry>
        </mxCell>
        <mxCell id="sLAZ6YUZ_4-rQjLrF8DP-16" value="" style="endArrow=classic;html=1;rounded=0;entryX=0.072;entryY=0.719;entryDx=0;entryDy=0;entryPerimeter=0;" edge="1" parent="sLAZ6YUZ_4-rQjLrF8DP-25" target="sLAZ6YUZ_4-rQjLrF8DP-1">
          <mxGeometry width="50" height="50" relative="1" as="geometry">
            <mxPoint x="41.62162162162162" y="154.6904761904762" as="sourcePoint" />
            <mxPoint x="145.67567567567568" y="67.78571428571429" as="targetPoint" />
          </mxGeometry>
        </mxCell>
        <mxCell id="sLAZ6YUZ_4-rQjLrF8DP-17" value="" style="endArrow=classic;html=1;rounded=0;entryX=0.012;entryY=0.581;entryDx=0;entryDy=0;entryPerimeter=0;" edge="1" parent="sLAZ6YUZ_4-rQjLrF8DP-25" target="sLAZ6YUZ_4-rQjLrF8DP-6">
          <mxGeometry width="50" height="50" relative="1" as="geometry">
            <mxPoint x="62.432432432432435" y="194.66666666666669" as="sourcePoint" />
            <mxPoint x="166.48648648648648" y="107.76190476190476" as="targetPoint" />
          </mxGeometry>
        </mxCell>
        <mxCell id="sLAZ6YUZ_4-rQjLrF8DP-18" value="" style="endArrow=classic;html=1;rounded=0;entryX=-0.004;entryY=0.347;entryDx=0;entryDy=0;entryPerimeter=0;" edge="1" parent="sLAZ6YUZ_4-rQjLrF8DP-25" target="sLAZ6YUZ_4-rQjLrF8DP-5">
          <mxGeometry width="50" height="50" relative="1" as="geometry">
            <mxPoint x="720.0540540540541" y="34.76190476190476" as="sourcePoint" />
            <mxPoint x="824.1081081081081" y="-52.142857142857146" as="targetPoint" />
          </mxGeometry>
        </mxCell>
        <mxCell id="sLAZ6YUZ_4-rQjLrF8DP-19" value="" style="endArrow=classic;html=1;rounded=0;entryX=1;entryY=0;entryDx=0;entryDy=0;" edge="1" parent="sLAZ6YUZ_4-rQjLrF8DP-25" target="sLAZ6YUZ_4-rQjLrF8DP-3">
          <mxGeometry width="50" height="50" relative="1" as="geometry">
            <mxPoint x="874.0540540540541" y="90.38095238095238" as="sourcePoint" />
            <mxPoint x="696.4129729729727" y="190.64819047619025" as="targetPoint" />
          </mxGeometry>
        </mxCell>
        <mxCell id="sLAZ6YUZ_4-rQjLrF8DP-20" value="" style="endArrow=classic;html=1;rounded=0;entryX=-0.004;entryY=0.678;entryDx=0;entryDy=0;entryPerimeter=0;" edge="1" parent="sLAZ6YUZ_4-rQjLrF8DP-25" target="sLAZ6YUZ_4-rQjLrF8DP-10">
          <mxGeometry width="50" height="50" relative="1" as="geometry">
            <mxPoint x="414.13513513513516" y="345.8809523809524" as="sourcePoint" />
            <mxPoint x="518.1891891891892" y="258.9761904761905" as="targetPoint" />
          </mxGeometry>
        </mxCell>
        <mxCell id="sLAZ6YUZ_4-rQjLrF8DP-21" value="" style="endArrow=classic;html=1;rounded=0;" edge="1" parent="sLAZ6YUZ_4-rQjLrF8DP-25" target="sLAZ6YUZ_4-rQjLrF8DP-7">
          <mxGeometry width="50" height="50" relative="1" as="geometry">
            <mxPoint x="1165.4054054054054" y="417.14285714285717" as="sourcePoint" />
            <mxPoint x="1269.4594594594596" y="330.23809523809524" as="targetPoint" />
          </mxGeometry>
        </mxCell>
        <mxCell id="sLAZ6YUZ_4-rQjLrF8DP-22" value="" style="endArrow=classic;html=1;rounded=0;" edge="1" parent="sLAZ6YUZ_4-rQjLrF8DP-25" target="sLAZ6YUZ_4-rQjLrF8DP-23">
          <mxGeometry width="50" height="50" relative="1" as="geometry">
            <mxPoint x="1123.7837837837837" y="486.6666666666667" as="sourcePoint" />
            <mxPoint x="1186.2162162162163" y="608.3333333333334" as="targetPoint" />
          </mxGeometry>
        </mxCell>
        <mxCell id="sLAZ6YUZ_4-rQjLrF8DP-23" value="&lt;div style=&quot;font-size: 24px;&quot;&gt;&lt;font style=&quot;font-size: 24px;&quot;&gt;Return Data to GUI&lt;/font&gt;&lt;/div&gt;" style="ellipse;whiteSpace=wrap;html=1;" vertex="1" parent="sLAZ6YUZ_4-rQjLrF8DP-25">
          <mxGeometry x="1144.5945945945946" y="590.952380952381" width="249.72972972972974" height="139.04761904761904" as="geometry" />
        </mxCell>
        <mxCell id="sLAZ6YUZ_4-rQjLrF8DP-26" value="&lt;div style=&quot;font-size: 22px;&quot;&gt;&lt;font style=&quot;font-size: 24px;&quot;&gt;&lt;u&gt;&lt;b&gt;2nd Rough Draft UML&lt;/b&gt;&lt;br&gt;&lt;/u&gt;&lt;/font&gt;&lt;/div&gt;" style="text;html=1;align=center;verticalAlign=middle;whiteSpace=wrap;rounded=0;" vertex="1" parent="WIyWlLk6GJQsqaUBKTNV-1">
          <mxGeometry x="-760" y="1000" width="410" height="100" as="geometry" />
        </mxCell>
      </root>
    </mxGraphModel>
  </diagram>
</mxfile>
